<svg width="72" height="72" viewBox="0 0 72 72" fill="none" xmlns="http://www.w3.org/2000/svg">
<rect width="72" height="72" rx="16" fill="#1F4743"/>
<path fill-rule="evenodd" clip-rule="evenodd" d="M46.0651 15.7462C45.4026 15.9678 45.0879 16.1577 44.564 16.6519C44.0632 17.1244 43.6476 17.8069 43.4201 18.5308C43.2973 18.9215 43.3138 20.185 43.4474 20.6254C43.8293 21.8839 44.9486 23.0228 46.1157 23.3404C46.3483 23.4037 46.8637 23.4522 47.3034 23.4522C47.981 23.4523 48.1494 23.4241 48.6216 23.232C48.929 23.1069 49.3831 22.8319 49.6722 22.5957C50.6118 21.8281 51.0836 20.9272 51.1588 19.7563C51.2344 18.5818 50.8575 17.5877 50.0161 16.742C49.1897 15.9113 48.4032 15.5967 47.1859 15.6098C46.7222 15.6147 46.3073 15.6652 46.0651 15.7462ZM35.6786 17.6491C35.08 17.7117 33.8266 17.9276 33.409 18.04C33.1762 18.1027 32.8819 18.1815 32.755 18.2151C31.0665 18.6624 28.29 20.0145 26.4462 21.2873C24.2555 22.7996 22.4898 24.4338 20.8992 26.4213C19.9734 27.578 18.6736 29.8243 18.1005 31.258C17.9651 31.5965 17.8251 31.9427 17.7893 32.0273C17.6948 32.2507 17.3649 33.3486 17.2577 33.7968C17.207 34.0084 17.1351 34.3026 17.0977 34.4507C16.572 36.5374 16.6224 39.9429 17.2121 42.1826C17.3571 42.7331 17.6925 43.8129 17.7856 44.0291C17.822 44.1137 17.929 44.3733 18.0234 44.6061C18.5476 45.8995 19.6927 47.8119 20.6666 49.0206C21.2851 49.7881 22.1996 50.7155 23.2942 51.6853C23.8543 52.1814 26.1318 53.7613 26.287 53.7613C26.3074 53.7613 26.4941 53.8616 26.7021 53.9841C27.274 54.3214 28.8826 55.0157 29.8135 55.3272C30.9697 55.7139 32.0943 55.9993 33.332 56.2197C35.4292 56.5932 38.7432 56.5256 40.7564 56.0682C43.0642 55.544 44.4058 55.0956 46.1035 54.2813C46.9506 53.875 48.5547 52.8604 49.6041 52.0673C50.6831 51.2518 52.7836 49.1792 53.4125 48.3095C53.6029 48.0461 53.8314 47.7369 53.9204 47.6224C54.2558 47.1903 55.3359 45.3207 55.3359 45.1722C55.3359 45.1418 55.0157 45.4604 54.6243 45.8804C53.3258 47.2735 52.0634 48.3469 50.642 49.2664C49.3637 50.0933 47.1763 51.0509 45.8342 51.3711C45.6227 51.4216 45.3284 51.4945 45.1803 51.533C43.1828 52.0531 40.6562 52.1206 38.4868 51.7121C33.8733 50.8433 29.6908 47.7278 28.4819 44.2599C28.252 43.6003 28.1948 42.4648 28.3624 41.8881C28.8891 40.0766 30.6922 39.1754 33.2459 39.4469C33.7376 39.4992 34.6246 39.6312 35.217 39.7404C36.5801 39.9914 38.0476 40.0189 38.7561 39.8068C39.6136 39.5499 40.0301 39.2145 39.5579 39.1611C39.0749 39.1066 38.3235 38.8813 35.6401 37.9866C33.8733 37.3974 33.0957 37.1761 31.6009 36.8369C29.9577 36.464 27.2662 36.4702 25.5229 36.851C24.1845 37.1434 22.365 37.9298 21.0471 38.7854C20.2125 39.3271 20.1379 39.2772 20.7 38.5531C21.8554 37.0647 24.1205 35.5254 26.163 34.8408C27.6149 34.3541 28.6468 34.1955 30.4084 34.1879C32.4726 34.1791 33.3686 34.3468 35.9324 35.222C37.1304 35.631 37.5237 35.7439 38.617 35.9929C39.0523 36.0921 40.8154 36.0863 41.2091 35.9844C41.8379 35.8219 42.0732 35.7356 42.599 35.4744C43.2065 35.1728 43.9441 34.611 44.3688 34.1265C45.1222 33.2671 45.6504 31.9832 45.6504 31.0116C45.6504 30.6934 45.6354 30.4181 45.6171 30.3997C45.5987 30.3814 45.3502 30.4733 45.0649 30.604C44.2557 30.9747 43.7764 31.0742 42.7952 31.0753C41.7838 31.0763 41.2843 30.9672 40.5064 30.575C39.7479 30.1924 39.106 29.6916 38.3489 28.8913C36.9135 27.3743 35.8058 26.3175 35.2543 25.939C32.9677 24.3698 30.5555 23.9742 27.3853 24.6486C26.799 24.7733 26.6533 24.7659 26.7459 24.6161C26.8892 24.3844 29.2828 23.5817 30.4854 23.3621C31.2273 23.2267 33.0004 23.2266 33.6013 23.362C35.6227 23.8173 37.1721 24.7723 38.0956 26.1322C38.268 26.3861 38.4415 26.614 38.4812 26.6385C38.5209 26.663 38.7435 26.5989 38.9759 26.4961C40.3193 25.902 41.4318 24.6731 41.8712 23.2977C42.3575 21.7755 42.0064 20.2881 40.8834 19.1126C40.2856 18.4868 39.5917 18.1094 38.4625 17.796C38.019 17.6729 36.3129 17.5829 35.6786 17.6491ZM27.0232 27.7218C25.4922 27.9143 24.4359 28.2921 23.3235 29.0452C22.6443 29.505 21.337 30.8289 20.8768 31.5227C20.4856 32.1126 20.1498 32.7578 20.2051 32.8131C20.227 32.835 20.5668 32.5702 20.9604 32.2247C22.63 30.7592 24.7474 29.6183 26.4846 29.2484C28.2913 28.8636 30.0947 29.0016 32.7165 29.7251C34.1518 30.1211 35.2627 30.3305 35.5486 30.2587C35.7278 30.2137 35.6699 30.1736 35.0613 29.9211C34.6815 29.7634 34.0381 29.4591 33.6315 29.2448C31.9982 28.3836 30.5522 27.8961 29.1005 27.7174C28.0658 27.5899 28.0726 27.5899 27.0232 27.7218Z" fill="#94D1CB"/>
</svg>
