<svg width="76" height="76" viewBox="0 0 76 76" fill="none" xmlns="http://www.w3.org/2000/svg">
<g filter="url(#filter0_d_2181_2738)">
<rect x="6" y="6" width="64" height="64" rx="16" fill="#1F4743"/>
<rect x="7" y="7" width="62" height="62" rx="15" stroke="black" stroke-width="2"/>
<path d="M25.0156 57.8133C23.1823 57.8133 21.7844 57.3378 20.8219 56.3867C19.8708 55.4357 19.3953 54.0492 19.3953 52.2273V34.8852C19.3953 33.0747 19.8708 31.694 20.8219 30.743C21.7844 29.7919 23.1823 29.3164 25.0156 29.3164H49.5766C51.4099 29.3164 52.8078 29.7919 53.7703 30.743C54.7328 31.694 55.2141 33.0747 55.2141 34.8852V52.2273C55.2141 54.0378 54.7328 55.4185 53.7703 56.3695C52.8078 57.332 51.4099 57.8133 49.5766 57.8133H25.0156ZM22.9187 26.4977C23.0333 25.6612 23.3255 25.0138 23.7953 24.5555C24.2651 24.0857 24.9755 23.8508 25.9266 23.8508H48.6828C49.6339 23.8508 50.3443 24.0857 50.8141 24.5555C51.2839 25.0138 51.5818 25.6612 51.7078 26.4977H22.9187ZM26.3906 21.393C26.4479 20.6023 26.7115 20.0008 27.1812 19.5883C27.6625 19.1643 28.3214 18.9523 29.1578 18.9523H45.4344C46.2937 18.9523 46.9583 19.1643 47.4281 19.5883C47.8979 20.0008 48.1615 20.6023 48.2187 21.393H26.3906Z" fill="#94D1CB"/>
</g>
<defs>
<filter id="filter0_d_2181_2738" x="0" y="0" width="76" height="76" filterUnits="userSpaceOnUse" color-interpolation-filters="sRGB">
<feFlood flood-opacity="0" result="BackgroundImageFix"/>
<feColorMatrix in="SourceAlpha" type="matrix" values="0 0 0 0 0 0 0 0 0 0 0 0 0 0 0 0 0 0 127 0" result="hardAlpha"/>
<feOffset/>
<feGaussianBlur stdDeviation="3"/>
<feComposite in2="hardAlpha" operator="out"/>
<feColorMatrix type="matrix" values="0 0 0 0 0.333333 0 0 0 0 0.709804 0 0 0 0 0.670588 0 0 0 0.25 0"/>
<feBlend mode="normal" in2="BackgroundImageFix" result="effect1_dropShadow_2181_2738"/>
<feBlend mode="normal" in="SourceGraphic" in2="effect1_dropShadow_2181_2738" result="shape"/>
</filter>
</defs>
</svg>
