<svg width="76" height="76" viewBox="0 0 76 76" fill="none" xmlns="http://www.w3.org/2000/svg">
<g filter="url(#filter0_d_2181_2744)">
<rect x="6" y="6" width="64" height="64" rx="16" fill="#1F4743"/>
<rect x="7" y="7" width="62" height="62" rx="15" stroke="black" stroke-width="2"/>
<path d="M29.1062 55.2695C27.7771 55.2695 26.7687 54.9086 26.0812 54.1867C25.3937 53.4763 25.05 52.3992 25.05 50.9555V38.5289C25.05 37.0966 25.3937 36.0253 26.0812 35.3148C26.7687 34.6044 27.7771 34.2492 29.1062 34.2492H45.4859C46.8266 34.2492 47.8349 34.6044 48.5109 35.3148C49.1984 36.0253 49.5422 37.0966 49.5422 38.5289V50.9555C49.5422 52.3992 49.1984 53.4763 48.5109 54.1867C47.8349 54.9086 46.8266 55.2695 45.4859 55.2695H29.1062ZM28.2984 35.7789V30.2617C28.2984 28.1763 28.7109 26.4174 29.5359 24.9852C30.3724 23.5529 31.4724 22.4701 32.8359 21.7367C34.1995 20.9919 35.6833 20.6195 37.2875 20.6195C38.9031 20.6195 40.3927 20.9919 41.7563 21.7367C43.1313 22.4701 44.2313 23.5529 45.0563 24.9852C45.8927 26.4174 46.3109 28.1763 46.3109 30.2617V35.7789H42.7359V29.9867C42.7359 28.7263 42.4839 27.6549 41.9797 26.7727C41.487 25.8904 40.8281 25.2201 40.0031 24.7617C39.1896 24.3034 38.2844 24.0742 37.2875 24.0742C36.3021 24.0742 35.3969 24.3034 34.5719 24.7617C33.7583 25.2201 33.1052 25.8904 32.6125 26.7727C32.1312 27.6549 31.8906 28.7263 31.8906 29.9867V35.7789H28.2984Z" fill="#94D1CB"/>
</g>
<defs>
<filter id="filter0_d_2181_2744" x="0" y="0" width="76" height="76" filterUnits="userSpaceOnUse" color-interpolation-filters="sRGB">
<feFlood flood-opacity="0" result="BackgroundImageFix"/>
<feColorMatrix in="SourceAlpha" type="matrix" values="0 0 0 0 0 0 0 0 0 0 0 0 0 0 0 0 0 0 127 0" result="hardAlpha"/>
<feOffset/>
<feGaussianBlur stdDeviation="3"/>
<feComposite in2="hardAlpha" operator="out"/>
<feColorMatrix type="matrix" values="0 0 0 0 0.333333 0 0 0 0 0.709804 0 0 0 0 0.670588 0 0 0 0.25 0"/>
<feBlend mode="normal" in2="BackgroundImageFix" result="effect1_dropShadow_2181_2744"/>
<feBlend mode="normal" in="SourceGraphic" in2="effect1_dropShadow_2181_2744" result="shape"/>
</filter>
</defs>
</svg>
