<svg width="76" height="76" viewBox="0 0 76 76" fill="none" xmlns="http://www.w3.org/2000/svg">
<g filter="url(#filter0_d_2181_2741)">
<rect x="6" y="6" width="64" height="64" rx="16" fill="#1F4743"/>
<rect x="7" y="7" width="62" height="62" rx="15" stroke="black" stroke-width="2"/>
<path d="M35.775 57.0398L30.9625 54.3758C30.4469 54.1008 30.1203 53.7227 29.9828 53.2414C29.8453 52.7716 29.8969 52.3018 30.1375 51.832C30.3781 51.3737 30.7448 51.0815 31.2375 50.9555C31.7417 50.8409 32.2458 50.9211 32.75 51.1961L35.4656 52.743V49.7352C35.4656 49.1622 35.6375 48.6924 35.9813 48.3258C36.325 47.9591 36.7661 47.7758 37.3047 47.7758C37.8318 47.7758 38.2672 47.9591 38.6109 48.3258C38.9547 48.6924 39.1266 49.1622 39.1266 49.7352V52.743L41.8422 51.1961C42.3349 50.9211 42.8333 50.8409 43.3375 50.9555C43.8417 51.0815 44.2141 51.3737 44.4547 51.832C44.6953 52.3018 44.7469 52.7716 44.6094 53.2414C44.4719 53.7227 44.151 54.1008 43.6469 54.3758L38.8172 57.0398C37.8089 57.6013 36.7948 57.6013 35.775 57.0398ZM24.1734 50.6289L22.1797 49.5289C21.3089 49.0362 20.6615 48.4862 20.2375 47.8789C19.825 47.2602 19.6187 46.3378 19.6187 45.1117V42.3789C19.6187 41.8174 19.7792 41.3534 20.1 40.9867C20.4323 40.6086 20.8562 40.4195 21.3719 40.4195C21.8417 40.4195 22.237 40.5799 22.5578 40.9008C22.8786 41.2216 23.062 41.6284 23.1078 42.1211L23.1594 43.668L25.4453 42.3789C25.938 42.1154 26.425 42.0523 26.9062 42.1898C27.3875 42.3273 27.7656 42.6195 28.0406 43.0664C28.3156 43.5247 28.3672 44.0003 28.1953 44.493C28.0349 44.9857 27.6969 45.3695 27.1812 45.6445L25.05 46.882L26.3047 47.6211C26.6828 47.8846 26.9292 48.2456 27.0437 48.7039C27.1698 49.1622 27.1182 49.6034 26.8891 50.0273C26.6484 50.4857 26.2703 50.7721 25.7547 50.8867C25.2391 51.0128 24.712 50.9268 24.1734 50.6289ZM21.3719 37.1539C20.8677 37.1539 20.4495 36.9706 20.1172 36.6039C19.7849 36.2372 19.6187 35.7674 19.6187 35.1945V31.0008C19.6187 30.0383 19.8135 29.2419 20.2031 28.6117C20.5927 27.9815 21.1771 27.4487 21.9562 27.0133L25.2562 25.157C25.7948 24.8706 26.3219 24.7503 26.8375 24.7961C27.3531 24.8305 27.7771 25.0539 28.1094 25.4664C28.3385 25.7529 28.4589 26.0737 28.4703 26.4289C28.4818 26.7727 28.3958 27.1049 28.2125 27.4258C28.0406 27.7352 27.7771 27.9872 27.4219 28.182L25.1359 29.4711L27.5766 30.8633C28.0922 31.1383 28.4359 31.5221 28.6078 32.0148C28.7797 32.5076 28.7281 32.9831 28.4531 33.4414C28.1667 33.8883 27.7828 34.1805 27.3016 34.318C26.8203 34.444 26.3391 34.3753 25.8578 34.1117L23.1422 32.5648V35.1773C23.1422 35.7503 22.976 36.2258 22.6437 36.6039C22.3115 36.9706 21.8875 37.1539 21.3719 37.1539ZM37.3047 28.1648C36.7661 28.1648 36.325 27.9815 35.9813 27.6148C35.6375 27.2367 35.4656 26.7669 35.4656 26.2055V23.6445L33.7641 24.5555C33.3401 24.7617 32.9104 24.8247 32.475 24.7445C32.0396 24.6643 31.7016 24.4409 31.4609 24.0742C31.2547 23.7763 31.1401 23.4555 31.1172 23.1117C31.1057 22.768 31.1917 22.4357 31.375 22.1148C31.5583 21.794 31.8448 21.5247 32.2344 21.307L35.225 19.6227C35.9927 19.2216 36.6859 19.0211 37.3047 19.0211C37.9234 19.0211 38.6052 19.2216 39.35 19.6227L42.3578 21.307C42.7474 21.5247 43.0339 21.794 43.2172 22.1148C43.412 22.4357 43.4979 22.768 43.475 23.1117C43.4635 23.4555 43.3547 23.7763 43.1484 24.0742C42.9078 24.4409 42.5641 24.6643 42.1172 24.7445C41.6818 24.8247 41.2521 24.7617 40.8281 24.5555L39.1266 23.6445V26.2055C39.1266 26.7669 38.9547 27.2367 38.6109 27.6148C38.2672 27.9815 37.8318 28.1648 37.3047 28.1648ZM53.2203 37.1539C52.7047 37.1539 52.2807 36.9706 51.9484 36.6039C51.6161 36.2258 51.45 35.7503 51.45 35.1773V32.5648L48.7344 34.1117C48.2646 34.3753 47.7833 34.444 47.2906 34.318C46.8094 34.1805 46.4313 33.8883 46.1563 33.4414C45.8813 32.9831 45.8297 32.5076 46.0016 32.0148C46.1734 31.5221 46.5115 31.1383 47.0156 30.8633L49.4734 29.4711L47.1875 28.182C46.8323 27.9872 46.563 27.7352 46.3797 27.4258C46.1964 27.1049 46.1104 26.7727 46.1219 26.4289C46.1448 26.0737 46.2708 25.7529 46.5 25.4664C46.8323 25.0539 47.2563 24.8305 47.7719 24.7961C48.2875 24.7503 48.8089 24.8706 49.3359 25.157L52.6359 27.0133C53.4953 27.4831 54.0969 28.0102 54.4406 28.5945C54.7958 29.1674 54.9734 29.9695 54.9734 31.0008V35.1945C54.9734 35.7674 54.8073 36.2372 54.475 36.6039C54.1427 36.9706 53.7245 37.1539 53.2203 37.1539ZM50.4188 50.6289C49.8917 50.9268 49.3703 51.0128 48.8547 50.8867C48.3391 50.7721 47.9609 50.4857 47.7203 50.0273C47.4911 49.6034 47.4339 49.1622 47.5484 48.7039C47.663 48.2456 47.9094 47.8846 48.2875 47.6211L49.5422 46.882L47.4109 45.6445C46.9068 45.3695 46.5688 44.9857 46.3969 44.493C46.2365 44.0003 46.2938 43.5247 46.5688 43.0664C46.8438 42.6195 47.2161 42.3273 47.6859 42.1898C48.1672 42.0523 48.6542 42.1154 49.1469 42.3789L51.4156 43.668L51.4844 42.1211C51.5302 41.6284 51.7135 41.2216 52.0344 40.9008C52.3667 40.5799 52.762 40.4195 53.2203 40.4195C53.7359 40.4195 54.1542 40.6086 54.475 40.9867C54.8073 41.3534 54.9734 41.8174 54.9734 42.3789V45.1117C54.9734 46.3378 54.7672 47.2602 54.3547 47.8789C53.9422 48.4862 53.2948 49.0362 52.4125 49.5289L50.4188 50.6289ZM37.3047 44.6992C36.7661 44.6992 36.325 44.5159 35.9813 44.1492C35.6375 43.7711 35.4656 43.3013 35.4656 42.7398V39.457L32.5437 37.807C32.0281 37.532 31.6901 37.1482 31.5297 36.6555C31.3807 36.1513 31.438 35.6701 31.7016 35.2117C31.9766 34.7534 32.349 34.4612 32.8187 34.3352C33.3 34.1977 33.787 34.2664 34.2797 34.5414L37.3047 36.243L40.3297 34.5414C40.8109 34.2664 41.2865 34.1977 41.7563 34.3352C42.2375 34.4612 42.6156 34.7534 42.8906 35.2117C43.1656 35.6701 43.2229 36.1513 43.0625 36.6555C42.9021 37.1482 42.5698 37.532 42.0656 37.807L39.1266 39.457V42.7398C39.1266 43.3013 38.9547 43.7711 38.6109 44.1492C38.2672 44.5159 37.8318 44.6992 37.3047 44.6992Z" fill="#94D1CB"/>
</g>
<defs>
<filter id="filter0_d_2181_2741" x="0" y="0" width="76" height="76" filterUnits="userSpaceOnUse" color-interpolation-filters="sRGB">
<feFlood flood-opacity="0" result="BackgroundImageFix"/>
<feColorMatrix in="SourceAlpha" type="matrix" values="0 0 0 0 0 0 0 0 0 0 0 0 0 0 0 0 0 0 127 0" result="hardAlpha"/>
<feOffset/>
<feGaussianBlur stdDeviation="3"/>
<feComposite in2="hardAlpha" operator="out"/>
<feColorMatrix type="matrix" values="0 0 0 0 0.333333 0 0 0 0 0.709804 0 0 0 0 0.670588 0 0 0 0.25 0"/>
<feBlend mode="normal" in2="BackgroundImageFix" result="effect1_dropShadow_2181_2741"/>
<feBlend mode="normal" in="SourceGraphic" in2="effect1_dropShadow_2181_2741" result="shape"/>
</filter>
</defs>
</svg>
