<svg width="40" height="40" viewBox="0 0 40 40" fill="none" xmlns="http://www.w3.org/2000/svg">
<rect width="40" height="40" rx="8" fill="#1F4743"/>
<path d="M12.8975 10.1572C14.0791 10.1572 15.1676 10.3828 16.1631 10.834C17.1657 11.278 17.9284 11.8867 18.4512 12.6602C18.5586 12.8249 18.6266 12.9502 18.6553 13.0361C18.6839 13.1221 18.6982 13.2402 18.6982 13.3906V29.6006C18.6982 29.751 18.6517 29.8691 18.5586 29.9551C18.4655 30.0482 18.3509 30.0947 18.2148 30.0947C18.0501 30.0947 17.8997 30.0374 17.7637 29.9229C17.377 29.5934 16.9544 29.3141 16.4961 29.085C16.0378 28.863 15.5544 28.6947 15.0459 28.5801C14.5446 28.4655 14.0254 28.4082 13.4883 28.4082C12.6647 28.4082 11.8555 28.5371 11.0605 28.7949C10.2728 29.0527 9.55664 29.4287 8.91211 29.9229C8.71159 30.0589 8.53255 30.1592 8.375 30.2236C8.21745 30.2881 8.03483 30.3203 7.82715 30.3203C7.46908 30.3203 7.1862 30.2201 6.97852 30.0195C6.77083 29.8262 6.66699 29.5469 6.66699 29.1816V14.1533C6.66699 13.8883 6.67773 13.6914 6.69922 13.5625C6.72786 13.4264 6.78874 13.2832 6.88184 13.1328C7.23275 12.5169 7.72331 11.9906 8.35352 11.5537C8.99089 11.1097 9.70345 10.766 10.4912 10.5225C11.279 10.279 12.0811 10.1572 12.8975 10.1572ZM26.1104 10.1572C26.9196 10.1572 27.7181 10.279 28.5059 10.5225C29.2936 10.766 30.0026 11.1097 30.6328 11.5537C31.2702 11.9906 31.7679 12.5169 32.126 13.1328C32.2119 13.276 32.2656 13.4157 32.2871 13.5518C32.3158 13.6878 32.3301 13.8883 32.3301 14.1533V29.1816C32.3301 29.5469 32.2262 29.8262 32.0186 30.0195C31.818 30.2201 31.5352 30.3203 31.1699 30.3203C30.9694 30.3203 30.7868 30.2881 30.6221 30.2236C30.4645 30.1592 30.2855 30.0589 30.085 29.9229C29.4404 29.4287 28.7207 29.0527 27.9258 28.7949C27.138 28.5371 26.3324 28.4082 25.5088 28.4082C24.9788 28.4082 24.4596 28.4655 23.9512 28.5801C23.4499 28.6947 22.9701 28.863 22.5117 29.085C22.0534 29.3141 21.6309 29.5934 21.2441 29.9229C21.1009 30.0374 20.9469 30.0947 20.7822 30.0947C20.6462 30.0947 20.5316 30.0482 20.4385 29.9551C20.3454 29.8691 20.2988 29.751 20.2988 29.6006V13.3906C20.2988 13.2402 20.3132 13.1221 20.3418 13.0361C20.3776 12.9502 20.4456 12.8249 20.5459 12.6602C21.0758 11.8867 21.8385 11.278 22.834 10.834C23.8294 10.3828 24.9215 10.1572 26.1104 10.1572Z" fill="#94D1CB"/>
</svg>
