<svg width="40" height="40" viewBox="0 0 40 40" fill="none" xmlns="http://www.w3.org/2000/svg">
<rect width="40" height="40" rx="8" fill="#1F4743"/>
<path d="M15.8467 23.6064H24.1826C24.4118 23.6064 24.6051 23.5312 24.7627 23.3809C24.9202 23.2305 24.999 23.0371 24.999 22.8008C24.999 22.5788 24.9202 22.3926 24.7627 22.2422C24.6051 22.0846 24.4118 22.0059 24.1826 22.0059H15.8467C15.6104 22.0059 15.4134 22.0846 15.2559 22.2422C15.1055 22.3926 15.0303 22.5788 15.0303 22.8008C15.0303 23.0371 15.1055 23.2305 15.2559 23.3809C15.4134 23.5312 15.6104 23.6064 15.8467 23.6064ZM15.8467 27.6133H24.1826C24.4118 27.6133 24.6051 27.5381 24.7627 27.3877C24.9202 27.2301 24.999 27.0404 24.999 26.8184C24.999 26.5892 24.9202 26.3994 24.7627 26.249C24.6051 26.0915 24.4118 26.0127 24.1826 26.0127H15.8467C15.6104 26.0127 15.4134 26.0915 15.2559 26.249C15.1055 26.3994 15.0303 26.5892 15.0303 26.8184C15.0303 27.0404 15.1055 27.2301 15.2559 27.3877C15.4134 27.5381 15.6104 27.6133 15.8467 27.6133ZM14.2676 31.9531C13.0859 31.9531 12.1872 31.6452 11.5713 31.0293C10.9626 30.4134 10.6582 29.5111 10.6582 28.3223V12.1768C10.6582 10.9951 10.9626 10.0928 11.5713 9.46973C12.1872 8.84668 13.0859 8.53516 14.2676 8.53516H19.1553V16.8389C19.1553 18.1566 19.8105 18.8154 21.1211 18.8154H29.3496V28.3223C29.3496 29.5111 29.0417 30.4134 28.4258 31.0293C27.8099 31.6452 26.9147 31.9531 25.7402 31.9531H14.2676ZM21.4326 17.1611C21.0101 17.1611 20.7988 16.9535 20.7988 16.5381V8.64258C21.0566 8.67122 21.3145 8.77865 21.5723 8.96484C21.8301 9.14388 22.0986 9.37663 22.3779 9.66309L28.2109 15.5605C28.5046 15.8613 28.7409 16.1406 28.9199 16.3984C29.099 16.6562 29.2064 16.9105 29.2422 17.1611H21.4326Z" fill="#94D1CB"/>
</svg>
