<svg width="40" height="40" viewBox="0 0 40 40" fill="none" xmlns="http://www.w3.org/2000/svg">
<rect width="40" height="40" rx="8" fill="#1F4743"/>
<path d="M9.2666 28.8271V12.7998C9.2666 11.79 9.53158 11.0273 10.0615 10.5117C10.5986 9.99609 11.3363 9.70605 12.2744 9.6416C13.5062 9.56283 14.7021 9.45182 15.8623 9.30859C17.0296 9.1582 18.1504 8.98633 19.2246 8.79297C20.306 8.59961 21.3372 8.38835 22.3184 8.15918C23.4212 7.89421 24.2842 8.01595 24.9072 8.52441C25.5374 9.03288 25.8525 9.86361 25.8525 11.0166V26.7002C25.8525 27.6598 25.6842 28.401 25.3477 28.9238C25.0182 29.4538 24.4346 29.8405 23.5967 30.084C22.3506 30.4349 21.1188 30.7249 19.9014 30.9541C18.6839 31.1904 17.4772 31.3766 16.2812 31.5127C15.0853 31.6488 13.8857 31.749 12.6826 31.8135C11.5941 31.8779 10.7526 31.6452 10.1582 31.1152C9.5638 30.5924 9.2666 29.8298 9.2666 28.8271ZM13.6602 15.4854C15.1641 15.3851 16.5426 15.2311 17.7959 15.0234C19.0492 14.8158 20.2809 14.5758 21.4912 14.3037C21.7705 14.2464 21.9531 14.1497 22.0391 14.0137C22.125 13.8776 22.168 13.7272 22.168 13.5625C22.168 13.3763 22.0964 13.2188 21.9531 13.0898C21.8171 12.9538 21.613 12.9108 21.3408 12.9609C20.1878 13.2259 18.9919 13.4622 17.7529 13.6699C16.5212 13.8704 15.1497 14.0208 13.6387 14.1211C13.4023 14.1426 13.2305 14.2214 13.123 14.3574C13.0156 14.4863 12.9619 14.6439 12.9619 14.8301C12.9619 15.0163 13.0264 15.1774 13.1553 15.3135C13.2842 15.4424 13.4525 15.4997 13.6602 15.4854ZM13.6602 18.9229C15.1641 18.8083 16.5426 18.6507 17.7959 18.4502C19.0492 18.2425 20.2809 18.0026 21.4912 17.7305C21.7705 17.666 21.9531 17.5693 22.0391 17.4404C22.125 17.3044 22.168 17.154 22.168 16.9893C22.168 16.8031 22.0964 16.6419 21.9531 16.5059C21.8171 16.3698 21.613 16.3304 21.3408 16.3877C20.1878 16.6527 18.9919 16.8854 17.7529 17.0859C16.5212 17.2865 15.1497 17.4404 13.6387 17.5479C13.4023 17.5622 13.2305 17.6374 13.123 17.7734C13.0156 17.9095 12.9619 18.0671 12.9619 18.2461C12.9619 18.4395 13.0264 18.6042 13.1553 18.7402C13.2842 18.8691 13.4525 18.93 13.6602 18.9229ZM13.6602 22.3389C15.1641 22.2314 16.5426 22.0739 17.7959 21.8662C19.0492 21.6585 20.2809 21.4222 21.4912 21.1572C21.7705 21.0928 21.9531 20.9925 22.0391 20.8564C22.125 20.7204 22.168 20.5736 22.168 20.416C22.168 20.2298 22.0964 20.0687 21.9531 19.9326C21.8171 19.7965 21.613 19.7536 21.3408 19.8037C20.1878 20.0687 18.9919 20.3014 17.7529 20.502C16.5212 20.7025 15.1497 20.86 13.6387 20.9746C13.4023 20.9889 13.2305 21.0641 13.123 21.2002C13.0156 21.3363 12.9619 21.4938 12.9619 21.6729C12.9619 21.8662 13.0264 22.0273 13.1553 22.1562C13.2842 22.2852 13.4525 22.346 13.6602 22.3389ZM13.6602 25.7549C14.5339 25.6976 15.2858 25.6296 15.916 25.5508C16.5462 25.4648 17.1406 25.3753 17.6992 25.2822C17.9069 25.2464 18.0609 25.1605 18.1611 25.0244C18.2614 24.8883 18.3115 24.7415 18.3115 24.584C18.3115 24.3906 18.2399 24.2259 18.0967 24.0898C17.9535 23.9538 17.7458 23.9108 17.4736 23.9609C16.9867 24.0397 16.4424 24.1185 15.8408 24.1973C15.2393 24.2689 14.5052 24.3298 13.6387 24.3799C13.4023 24.4014 13.2305 24.4766 13.123 24.6055C13.0156 24.7344 12.9619 24.8919 12.9619 25.0781C12.9619 25.2786 13.0264 25.4434 13.1553 25.5723C13.2842 25.7012 13.4525 25.762 13.6602 25.7549ZM18.3545 32.8125C19.2783 32.6621 20.2129 32.4867 21.1582 32.2861C22.1107 32.0856 23.0703 31.8493 24.0371 31.5771C24.7676 31.3623 25.387 31.0579 25.8955 30.6641C26.404 30.2773 26.7907 29.7617 27.0557 29.1172C27.3206 28.4798 27.4531 27.6742 27.4531 26.7002V11.124C27.4531 10.9307 27.4424 10.7409 27.4209 10.5547C27.4066 10.3613 27.3851 10.1429 27.3564 9.89941C28.1442 10.0641 28.7386 10.4365 29.1396 11.0166C29.5407 11.5967 29.7412 12.363 29.7412 13.3154V29.1924C29.7412 30.3955 29.4404 31.2979 28.8389 31.8994C28.2373 32.5081 27.3457 32.8125 26.1641 32.8125H18.3545Z" fill="#94D1CB"/>
</svg>
