<svg width="40" height="41" viewBox="0 0 40 41" fill="none" xmlns="http://www.w3.org/2000/svg">
<rect y="0.125" width="40" height="40" rx="8" fill="#EDF7F6"/>
<path d="M15.8467 23.7314H24.1826C24.4118 23.7314 24.6051 23.6562 24.7627 23.5059C24.9202 23.3555 24.999 23.1621 24.999 22.9258C24.999 22.7038 24.9202 22.5176 24.7627 22.3672C24.6051 22.2096 24.4118 22.1309 24.1826 22.1309H15.8467C15.6104 22.1309 15.4134 22.2096 15.2559 22.3672C15.1055 22.5176 15.0303 22.7038 15.0303 22.9258C15.0303 23.1621 15.1055 23.3555 15.2559 23.5059C15.4134 23.6562 15.6104 23.7314 15.8467 23.7314ZM15.8467 27.7383H24.1826C24.4118 27.7383 24.6051 27.6631 24.7627 27.5127C24.9202 27.3551 24.999 27.1654 24.999 26.9434C24.999 26.7142 24.9202 26.5244 24.7627 26.374C24.6051 26.2165 24.4118 26.1377 24.1826 26.1377H15.8467C15.6104 26.1377 15.4134 26.2165 15.2559 26.374C15.1055 26.5244 15.0303 26.7142 15.0303 26.9434C15.0303 27.1654 15.1055 27.3551 15.2559 27.5127C15.4134 27.6631 15.6104 27.7383 15.8467 27.7383ZM14.2676 32.0781C13.0859 32.0781 12.1872 31.7702 11.5713 31.1543C10.9626 30.5384 10.6582 29.6361 10.6582 28.4473V12.3018C10.6582 11.1201 10.9626 10.2178 11.5713 9.59473C12.1872 8.97168 13.0859 8.66016 14.2676 8.66016H19.1553V16.9639C19.1553 18.2816 19.8105 18.9404 21.1211 18.9404H29.3496V28.4473C29.3496 29.6361 29.0417 30.5384 28.4258 31.1543C27.8099 31.7702 26.9147 32.0781 25.7402 32.0781H14.2676ZM21.4326 17.2861C21.0101 17.2861 20.7988 17.0785 20.7988 16.6631V8.76758C21.0566 8.79622 21.3145 8.90365 21.5723 9.08984C21.8301 9.26888 22.0986 9.50163 22.3779 9.78809L28.2109 15.6855C28.5046 15.9863 28.7409 16.2656 28.9199 16.5234C29.099 16.7812 29.2064 17.0355 29.2422 17.2861H21.4326Z" fill="#55B5AB"/>
</svg>
