<svg width="40" height="41" viewBox="0 0 40 41" fill="none" xmlns="http://www.w3.org/2000/svg">
<rect y="0.125" width="40" height="40" rx="8" fill="#EDF7F6"/>
<path d="M12.8975 10.2822C14.0791 10.2822 15.1676 10.5078 16.1631 10.959C17.1657 11.403 17.9284 12.0117 18.4512 12.7852C18.5586 12.9499 18.6266 13.0752 18.6553 13.1611C18.6839 13.2471 18.6982 13.3652 18.6982 13.5156V29.7256C18.6982 29.876 18.6517 29.9941 18.5586 30.0801C18.4655 30.1732 18.3509 30.2197 18.2148 30.2197C18.0501 30.2197 17.8997 30.1624 17.7637 30.0479C17.377 29.7184 16.9544 29.4391 16.4961 29.21C16.0378 28.988 15.5544 28.8197 15.0459 28.7051C14.5446 28.5905 14.0254 28.5332 13.4883 28.5332C12.6647 28.5332 11.8555 28.6621 11.0605 28.9199C10.2728 29.1777 9.55664 29.5537 8.91211 30.0479C8.71159 30.1839 8.53255 30.2842 8.375 30.3486C8.21745 30.4131 8.03483 30.4453 7.82715 30.4453C7.46908 30.4453 7.1862 30.3451 6.97852 30.1445C6.77083 29.9512 6.66699 29.6719 6.66699 29.3066V14.2783C6.66699 14.0133 6.67773 13.8164 6.69922 13.6875C6.72786 13.5514 6.78874 13.4082 6.88184 13.2578C7.23275 12.6419 7.72331 12.1156 8.35352 11.6787C8.99089 11.2347 9.70345 10.891 10.4912 10.6475C11.279 10.404 12.0811 10.2822 12.8975 10.2822ZM26.1104 10.2822C26.9196 10.2822 27.7181 10.404 28.5059 10.6475C29.2936 10.891 30.0026 11.2347 30.6328 11.6787C31.2702 12.1156 31.7679 12.6419 32.126 13.2578C32.2119 13.401 32.2656 13.5407 32.2871 13.6768C32.3158 13.8128 32.3301 14.0133 32.3301 14.2783V29.3066C32.3301 29.6719 32.2262 29.9512 32.0186 30.1445C31.818 30.3451 31.5352 30.4453 31.1699 30.4453C30.9694 30.4453 30.7868 30.4131 30.6221 30.3486C30.4645 30.2842 30.2855 30.1839 30.085 30.0479C29.4404 29.5537 28.7207 29.1777 27.9258 28.9199C27.138 28.6621 26.3324 28.5332 25.5088 28.5332C24.9788 28.5332 24.4596 28.5905 23.9512 28.7051C23.4499 28.8197 22.9701 28.988 22.5117 29.21C22.0534 29.4391 21.6309 29.7184 21.2441 30.0479C21.1009 30.1624 20.9469 30.2197 20.7822 30.2197C20.6462 30.2197 20.5316 30.1732 20.4385 30.0801C20.3454 29.9941 20.2988 29.876 20.2988 29.7256V13.5156C20.2988 13.3652 20.3132 13.2471 20.3418 13.1611C20.3776 13.0752 20.4456 12.9499 20.5459 12.7852C21.0758 12.0117 21.8385 11.403 22.834 10.959C23.8294 10.5078 24.9215 10.2822 26.1104 10.2822Z" fill="#55B5AB"/>
</svg>
