<svg width="40" height="41" viewBox="0 0 40 41" fill="none" xmlns="http://www.w3.org/2000/svg">
<rect y="0.125" width="40" height="40" rx="8" fill="#EDF7F6"/>
<path d="M19.5039 30.8857C19.3535 30.8857 19.1709 30.832 18.9561 30.7246C18.7412 30.6243 18.5371 30.5098 18.3438 30.3809C16.3529 29.0918 14.6198 27.7383 13.1445 26.3203C11.6764 24.8952 10.5378 23.4307 9.72852 21.9268C8.91927 20.4157 8.51465 18.8939 8.51465 17.3613C8.51465 16.3444 8.67578 15.417 8.99805 14.5791C9.32747 13.7412 9.77865 13.0179 10.3516 12.4092C10.9316 11.8005 11.5977 11.335 12.3496 11.0127C13.1087 10.6833 13.9251 10.5186 14.7988 10.5186C15.8802 10.5186 16.8148 10.7907 17.6025 11.335C18.3975 11.8792 19.0312 12.5882 19.5039 13.4619C19.9837 12.5811 20.6175 11.8721 21.4053 11.335C22.2002 10.7907 23.1383 10.5186 24.2197 10.5186C25.0791 10.5186 25.8883 10.6833 26.6475 11.0127C27.4137 11.335 28.0833 11.8005 28.6562 12.4092C29.2292 13.0179 29.6768 13.7412 29.999 14.5791C30.3285 15.417 30.4932 16.3444 30.4932 17.3613C30.4932 18.8939 30.0885 20.4157 29.2793 21.9268C28.4701 23.4307 27.3278 24.8952 25.8525 26.3203C24.3844 27.7383 22.6585 29.0918 20.6748 30.3809C20.4743 30.5098 20.2666 30.6243 20.0518 30.7246C19.8441 30.832 19.6615 30.8857 19.5039 30.8857Z" fill="#55B5AB"/>
</svg>
