<svg width="76" height="77" viewBox="0 0 76 77" fill="none" xmlns="http://www.w3.org/2000/svg">
<g filter="url(#filter0_d_2133_2312)">
<rect x="6" y="6.125" width="64" height="64" rx="16" fill="#EDF7F6"/>
<rect x="7" y="7.125" width="62" height="62" rx="15" stroke="white" stroke-width="2"/>
<path d="M35.775 57.1648L30.9625 54.5008C30.4469 54.2258 30.1203 53.8477 29.9828 53.3664C29.8453 52.8966 29.8969 52.4268 30.1375 51.957C30.3781 51.4987 30.7448 51.2065 31.2375 51.0805C31.7417 50.9659 32.2458 51.0461 32.75 51.3211L35.4656 52.868V49.8602C35.4656 49.2872 35.6375 48.8174 35.9813 48.4508C36.325 48.0841 36.7661 47.9008 37.3047 47.9008C37.8318 47.9008 38.2672 48.0841 38.6109 48.4508C38.9547 48.8174 39.1266 49.2872 39.1266 49.8602V52.868L41.8422 51.3211C42.3349 51.0461 42.8333 50.9659 43.3375 51.0805C43.8417 51.2065 44.2141 51.4987 44.4547 51.957C44.6953 52.4268 44.7469 52.8966 44.6094 53.3664C44.4719 53.8477 44.151 54.2258 43.6469 54.5008L38.8172 57.1648C37.8089 57.7263 36.7948 57.7263 35.775 57.1648ZM24.1734 50.7539L22.1797 49.6539C21.3089 49.1612 20.6615 48.6112 20.2375 48.0039C19.825 47.3852 19.6187 46.4628 19.6187 45.2367V42.5039C19.6187 41.9424 19.7792 41.4784 20.1 41.1117C20.4323 40.7336 20.8562 40.5445 21.3719 40.5445C21.8417 40.5445 22.237 40.7049 22.5578 41.0258C22.8786 41.3466 23.062 41.7534 23.1078 42.2461L23.1594 43.793L25.4453 42.5039C25.938 42.2404 26.425 42.1773 26.9062 42.3148C27.3875 42.4523 27.7656 42.7445 28.0406 43.1914C28.3156 43.6497 28.3672 44.1253 28.1953 44.618C28.0349 45.1107 27.6969 45.4945 27.1812 45.7695L25.05 47.007L26.3047 47.7461C26.6828 48.0096 26.9292 48.3706 27.0437 48.8289C27.1698 49.2872 27.1182 49.7284 26.8891 50.1523C26.6484 50.6107 26.2703 50.8971 25.7547 51.0117C25.2391 51.1378 24.712 51.0518 24.1734 50.7539ZM21.3719 37.2789C20.8677 37.2789 20.4495 37.0956 20.1172 36.7289C19.7849 36.3622 19.6187 35.8924 19.6187 35.3195V31.1258C19.6187 30.1633 19.8135 29.3669 20.2031 28.7367C20.5927 28.1065 21.1771 27.5737 21.9562 27.1383L25.2562 25.282C25.7948 24.9956 26.3219 24.8753 26.8375 24.9211C27.3531 24.9555 27.7771 25.1789 28.1094 25.5914C28.3385 25.8779 28.4589 26.1987 28.4703 26.5539C28.4818 26.8977 28.3958 27.2299 28.2125 27.5508C28.0406 27.8602 27.7771 28.1122 27.4219 28.307L25.1359 29.5961L27.5766 30.9883C28.0922 31.2633 28.4359 31.6471 28.6078 32.1398C28.7797 32.6326 28.7281 33.1081 28.4531 33.5664C28.1667 34.0133 27.7828 34.3055 27.3016 34.443C26.8203 34.569 26.3391 34.5003 25.8578 34.2367L23.1422 32.6898V35.3023C23.1422 35.8753 22.976 36.3508 22.6437 36.7289C22.3115 37.0956 21.8875 37.2789 21.3719 37.2789ZM37.3047 28.2898C36.7661 28.2898 36.325 28.1065 35.9813 27.7398C35.6375 27.3617 35.4656 26.8919 35.4656 26.3305V23.7695L33.7641 24.6805C33.3401 24.8867 32.9104 24.9497 32.475 24.8695C32.0396 24.7893 31.7016 24.5659 31.4609 24.1992C31.2547 23.9013 31.1401 23.5805 31.1172 23.2367C31.1057 22.893 31.1917 22.5607 31.375 22.2398C31.5583 21.919 31.8448 21.6497 32.2344 21.432L35.225 19.7477C35.9927 19.3466 36.6859 19.1461 37.3047 19.1461C37.9234 19.1461 38.6052 19.3466 39.35 19.7477L42.3578 21.432C42.7474 21.6497 43.0339 21.919 43.2172 22.2398C43.412 22.5607 43.4979 22.893 43.475 23.2367C43.4635 23.5805 43.3547 23.9013 43.1484 24.1992C42.9078 24.5659 42.5641 24.7893 42.1172 24.8695C41.6818 24.9497 41.2521 24.8867 40.8281 24.6805L39.1266 23.7695V26.3305C39.1266 26.8919 38.9547 27.3617 38.6109 27.7398C38.2672 28.1065 37.8318 28.2898 37.3047 28.2898ZM53.2203 37.2789C52.7047 37.2789 52.2807 37.0956 51.9484 36.7289C51.6161 36.3508 51.45 35.8753 51.45 35.3023V32.6898L48.7344 34.2367C48.2646 34.5003 47.7833 34.569 47.2906 34.443C46.8094 34.3055 46.4313 34.0133 46.1563 33.5664C45.8813 33.1081 45.8297 32.6326 46.0016 32.1398C46.1734 31.6471 46.5115 31.2633 47.0156 30.9883L49.4734 29.5961L47.1875 28.307C46.8323 28.1122 46.563 27.8602 46.3797 27.5508C46.1964 27.2299 46.1104 26.8977 46.1219 26.5539C46.1448 26.1987 46.2708 25.8779 46.5 25.5914C46.8323 25.1789 47.2563 24.9555 47.7719 24.9211C48.2875 24.8753 48.8089 24.9956 49.3359 25.282L52.6359 27.1383C53.4953 27.6081 54.0969 28.1352 54.4406 28.7195C54.7958 29.2924 54.9734 30.0945 54.9734 31.1258V35.3195C54.9734 35.8924 54.8073 36.3622 54.475 36.7289C54.1427 37.0956 53.7245 37.2789 53.2203 37.2789ZM50.4188 50.7539C49.8917 51.0518 49.3703 51.1378 48.8547 51.0117C48.3391 50.8971 47.9609 50.6107 47.7203 50.1523C47.4911 49.7284 47.4339 49.2872 47.5484 48.8289C47.663 48.3706 47.9094 48.0096 48.2875 47.7461L49.5422 47.007L47.4109 45.7695C46.9068 45.4945 46.5688 45.1107 46.3969 44.618C46.2365 44.1253 46.2938 43.6497 46.5688 43.1914C46.8438 42.7445 47.2161 42.4523 47.6859 42.3148C48.1672 42.1773 48.6542 42.2404 49.1469 42.5039L51.4156 43.793L51.4844 42.2461C51.5302 41.7534 51.7135 41.3466 52.0344 41.0258C52.3667 40.7049 52.762 40.5445 53.2203 40.5445C53.7359 40.5445 54.1542 40.7336 54.475 41.1117C54.8073 41.4784 54.9734 41.9424 54.9734 42.5039V45.2367C54.9734 46.4628 54.7672 47.3852 54.3547 48.0039C53.9422 48.6112 53.2948 49.1612 52.4125 49.6539L50.4188 50.7539ZM37.3047 44.8242C36.7661 44.8242 36.325 44.6409 35.9813 44.2742C35.6375 43.8961 35.4656 43.4263 35.4656 42.8648V39.582L32.5437 37.932C32.0281 37.657 31.6901 37.2732 31.5297 36.7805C31.3807 36.2763 31.438 35.7951 31.7016 35.3367C31.9766 34.8784 32.349 34.5862 32.8187 34.4602C33.3 34.3227 33.787 34.3914 34.2797 34.6664L37.3047 36.368L40.3297 34.6664C40.8109 34.3914 41.2865 34.3227 41.7563 34.4602C42.2375 34.5862 42.6156 34.8784 42.8906 35.3367C43.1656 35.7951 43.2229 36.2763 43.0625 36.7805C42.9021 37.2732 42.5698 37.657 42.0656 37.932L39.1266 39.582V42.8648C39.1266 43.4263 38.9547 43.8961 38.6109 44.2742C38.2672 44.6409 37.8318 44.8242 37.3047 44.8242Z" fill="#55B5AB"/>
</g>
<defs>
<filter id="filter0_d_2133_2312" x="0" y="0.125" width="76" height="76" filterUnits="userSpaceOnUse" color-interpolation-filters="sRGB">
<feFlood flood-opacity="0" result="BackgroundImageFix"/>
<feColorMatrix in="SourceAlpha" type="matrix" values="0 0 0 0 0 0 0 0 0 0 0 0 0 0 0 0 0 0 127 0" result="hardAlpha"/>
<feOffset/>
<feGaussianBlur stdDeviation="3"/>
<feComposite in2="hardAlpha" operator="out"/>
<feColorMatrix type="matrix" values="0 0 0 0 0.333333 0 0 0 0 0.709804 0 0 0 0 0.670588 0 0 0 0.25 0"/>
<feBlend mode="normal" in2="BackgroundImageFix" result="effect1_dropShadow_2133_2312"/>
<feBlend mode="normal" in="SourceGraphic" in2="effect1_dropShadow_2133_2312" result="shape"/>
</filter>
</defs>
</svg>
