<svg width="40" height="41" viewBox="0 0 40 41" fill="none" xmlns="http://www.w3.org/2000/svg">
<rect y="0.125" width="40" height="40" rx="8" fill="#EDF7F6"/>
<path d="M9.2666 28.9521V12.9248C9.2666 11.915 9.53158 11.1523 10.0615 10.6367C10.5986 10.1211 11.3363 9.83105 12.2744 9.7666C13.5062 9.68783 14.7021 9.57682 15.8623 9.43359C17.0296 9.2832 18.1504 9.11133 19.2246 8.91797C20.306 8.72461 21.3372 8.51335 22.3184 8.28418C23.4212 8.01921 24.2842 8.14095 24.9072 8.64941C25.5374 9.15788 25.8525 9.98861 25.8525 11.1416V26.8252C25.8525 27.7848 25.6842 28.526 25.3477 29.0488C25.0182 29.5788 24.4346 29.9655 23.5967 30.209C22.3506 30.5599 21.1188 30.8499 19.9014 31.0791C18.6839 31.3154 17.4772 31.5016 16.2812 31.6377C15.0853 31.7738 13.8857 31.874 12.6826 31.9385C11.5941 32.0029 10.7526 31.7702 10.1582 31.2402C9.5638 30.7174 9.2666 29.9548 9.2666 28.9521ZM13.6602 15.6104C15.1641 15.5101 16.5426 15.3561 17.7959 15.1484C19.0492 14.9408 20.2809 14.7008 21.4912 14.4287C21.7705 14.3714 21.9531 14.2747 22.0391 14.1387C22.125 14.0026 22.168 13.8522 22.168 13.6875C22.168 13.5013 22.0964 13.3438 21.9531 13.2148C21.8171 13.0788 21.613 13.0358 21.3408 13.0859C20.1878 13.3509 18.9919 13.5872 17.7529 13.7949C16.5212 13.9954 15.1497 14.1458 13.6387 14.2461C13.4023 14.2676 13.2305 14.3464 13.123 14.4824C13.0156 14.6113 12.9619 14.7689 12.9619 14.9551C12.9619 15.1413 13.0264 15.3024 13.1553 15.4385C13.2842 15.5674 13.4525 15.6247 13.6602 15.6104ZM13.6602 19.0479C15.1641 18.9333 16.5426 18.7757 17.7959 18.5752C19.0492 18.3675 20.2809 18.1276 21.4912 17.8555C21.7705 17.791 21.9531 17.6943 22.0391 17.5654C22.125 17.4294 22.168 17.279 22.168 17.1143C22.168 16.9281 22.0964 16.7669 21.9531 16.6309C21.8171 16.4948 21.613 16.4554 21.3408 16.5127C20.1878 16.7777 18.9919 17.0104 17.7529 17.2109C16.5212 17.4115 15.1497 17.5654 13.6387 17.6729C13.4023 17.6872 13.2305 17.7624 13.123 17.8984C13.0156 18.0345 12.9619 18.1921 12.9619 18.3711C12.9619 18.5645 13.0264 18.7292 13.1553 18.8652C13.2842 18.9941 13.4525 19.055 13.6602 19.0479ZM13.6602 22.4639C15.1641 22.3564 16.5426 22.1989 17.7959 21.9912C19.0492 21.7835 20.2809 21.5472 21.4912 21.2822C21.7705 21.2178 21.9531 21.1175 22.0391 20.9814C22.125 20.8454 22.168 20.6986 22.168 20.541C22.168 20.3548 22.0964 20.1937 21.9531 20.0576C21.8171 19.9215 21.613 19.8786 21.3408 19.9287C20.1878 20.1937 18.9919 20.4264 17.7529 20.627C16.5212 20.8275 15.1497 20.985 13.6387 21.0996C13.4023 21.1139 13.2305 21.1891 13.123 21.3252C13.0156 21.4613 12.9619 21.6188 12.9619 21.7979C12.9619 21.9912 13.0264 22.1523 13.1553 22.2812C13.2842 22.4102 13.4525 22.471 13.6602 22.4639ZM13.6602 25.8799C14.5339 25.8226 15.2858 25.7546 15.916 25.6758C16.5462 25.5898 17.1406 25.5003 17.6992 25.4072C17.9069 25.3714 18.0609 25.2855 18.1611 25.1494C18.2614 25.0133 18.3115 24.8665 18.3115 24.709C18.3115 24.5156 18.2399 24.3509 18.0967 24.2148C17.9535 24.0788 17.7458 24.0358 17.4736 24.0859C16.9867 24.1647 16.4424 24.2435 15.8408 24.3223C15.2393 24.3939 14.5052 24.4548 13.6387 24.5049C13.4023 24.5264 13.2305 24.6016 13.123 24.7305C13.0156 24.8594 12.9619 25.0169 12.9619 25.2031C12.9619 25.4036 13.0264 25.5684 13.1553 25.6973C13.2842 25.8262 13.4525 25.887 13.6602 25.8799ZM18.3545 32.9375C19.2783 32.7871 20.2129 32.6117 21.1582 32.4111C22.1107 32.2106 23.0703 31.9743 24.0371 31.7021C24.7676 31.4873 25.387 31.1829 25.8955 30.7891C26.404 30.4023 26.7907 29.8867 27.0557 29.2422C27.3206 28.6048 27.4531 27.7992 27.4531 26.8252V11.249C27.4531 11.0557 27.4424 10.8659 27.4209 10.6797C27.4066 10.4863 27.3851 10.2679 27.3564 10.0244C28.1442 10.1891 28.7386 10.5615 29.1396 11.1416C29.5407 11.7217 29.7412 12.488 29.7412 13.4404V29.3174C29.7412 30.5205 29.4404 31.4229 28.8389 32.0244C28.2373 32.6331 27.3457 32.9375 26.1641 32.9375H18.3545Z" fill="#55B5AB"/>
</svg>
