<svg width="84" height="84" viewBox="0 0 84 84" fill="none" xmlns="http://www.w3.org/2000/svg">
<g filter="url(#filter0_d_2167_2720)">
<rect x="6" y="6" width="72" height="72" rx="16" fill="#55B5AB"/>
<path fill-rule="evenodd" clip-rule="evenodd" d="M52.0611 21.7462C51.3987 21.9678 51.084 22.1577 50.5601 22.6519C50.0593 23.1244 49.6437 23.8069 49.4162 24.5308C49.2934 24.9215 49.3099 26.185 49.4435 26.6254C49.8254 27.8839 50.9446 29.0228 52.1118 29.3404C52.3444 29.4037 52.8598 29.4522 53.2995 29.4522C53.9771 29.4523 54.1455 29.4241 54.6177 29.232C54.925 29.1069 55.3792 28.8319 55.6683 28.5957C56.6079 27.8281 57.0797 26.9272 57.1549 25.7563C57.2305 24.5818 56.8536 23.5877 56.0122 22.742C55.1858 21.9113 54.3993 21.5967 53.182 21.6098C52.7183 21.6147 52.3034 21.6652 52.0611 21.7462ZM41.6747 23.6491C41.0761 23.7117 39.8227 23.9276 39.405 24.04C39.1723 24.1027 38.878 24.1815 38.7511 24.2151C37.0626 24.6624 34.2861 26.0145 32.4423 27.2873C30.2516 28.7996 28.4859 30.4338 26.8953 32.4213C25.9695 33.578 24.6697 35.8243 24.0965 37.258C23.9612 37.5965 23.8212 37.9427 23.7854 38.0273C23.6909 38.2507 23.361 39.3486 23.2538 39.7968C23.2031 40.0084 23.1311 40.3026 23.0938 40.4507C22.5681 42.5374 22.6185 45.9429 23.2082 48.1826C23.3532 48.7331 23.6886 49.8129 23.7816 50.0291C23.8181 50.1137 23.9251 50.3733 24.0195 50.6061C24.5437 51.8995 25.6888 53.8119 26.6627 55.0206C27.2812 55.7881 28.1957 56.7155 29.2903 57.6853C29.8503 58.1814 32.1279 59.7613 32.2831 59.7613C32.3035 59.7613 32.4902 59.8616 32.6982 59.9841C33.2701 60.3214 34.8787 61.0157 35.8096 61.3272C36.9658 61.7139 38.0904 61.9993 39.3281 62.2197C41.4253 62.5932 44.7393 62.5256 46.7525 62.0682C49.0603 61.544 50.4019 61.0956 52.0996 60.2813C52.9467 59.875 54.5507 58.8604 55.6002 58.0673C56.6792 57.2518 58.7797 55.1792 59.4086 54.3095C59.599 54.0461 59.8275 53.7369 59.9165 53.6224C60.2519 53.1903 61.332 51.3207 61.332 51.1722C61.332 51.1418 61.0118 51.4604 60.6204 51.8804C59.3219 53.2735 58.0594 54.3469 56.6381 55.2664C55.3598 56.0933 53.1724 57.0509 51.8303 57.3711C51.6188 57.4216 51.3245 57.4945 51.1764 57.533C49.1789 58.0531 46.6523 58.1206 44.4829 57.7121C39.8694 56.8433 35.6868 53.7278 34.478 50.2599C34.2481 49.6003 34.1909 48.4648 34.3585 47.8881C34.8852 46.0766 36.6883 45.1754 39.242 45.4469C39.7337 45.4992 40.6206 45.6312 41.2131 45.7404C42.5762 45.9914 44.0437 46.0189 44.7522 45.8068C45.6097 45.5499 46.0262 45.2145 45.554 45.1611C45.071 45.1066 44.3196 44.8813 41.6362 43.9866C39.8694 43.3974 39.0918 43.1761 37.597 42.8369C35.9538 42.464 33.2623 42.4702 31.519 42.851C30.1806 43.1434 28.3611 43.9298 27.0432 44.7854C26.2086 45.3271 26.134 45.2772 26.6961 44.5531C27.8515 43.0647 30.1166 41.5254 32.1591 40.8408C33.611 40.3541 34.6429 40.1955 36.4045 40.1879C38.4687 40.1791 39.3647 40.3468 41.9285 41.222C43.1265 41.631 43.5198 41.7439 44.6131 41.9929C45.0484 42.0921 46.8115 42.0863 47.2052 41.9844C47.834 41.8219 48.0693 41.7356 48.5951 41.4744C49.2026 41.1728 49.9402 40.611 50.3649 40.1265C51.1183 39.2671 51.6465 37.9832 51.6465 37.0116C51.6465 36.6934 51.6315 36.4181 51.6132 36.3997C51.5948 36.3814 51.3463 36.4733 51.061 36.604C50.2518 36.9747 49.7725 37.0742 48.7913 37.0753C47.7798 37.0763 47.2804 36.9672 46.5025 36.575C45.7439 36.1924 45.1021 35.6916 44.345 34.8913C42.9096 33.3743 41.8019 32.3175 41.2504 31.939C38.9638 30.3698 36.5516 29.9742 33.3814 30.6486C32.7951 30.7733 32.6494 30.7659 32.742 30.6161C32.8853 30.3844 35.2789 29.5817 36.4814 29.3621C37.2234 29.2267 38.9965 29.2266 39.5974 29.362C41.6188 29.8173 43.1682 30.7723 44.0917 32.1322C44.2641 32.3861 44.4376 32.614 44.4773 32.6385C44.517 32.663 44.7396 32.5989 44.972 32.4961C46.3154 31.902 47.4279 30.6731 47.8673 29.2977C48.3536 27.7755 48.0025 26.2881 46.8795 25.1126C46.2817 24.4868 45.5878 24.1094 44.4586 23.796C44.0151 23.6729 42.309 23.5829 41.6747 23.6491ZM33.0193 33.7218C31.4883 33.9143 30.432 34.2921 29.3196 35.0452C28.6404 35.505 27.333 36.8289 26.8729 37.5227C26.4817 38.1126 26.1459 38.7578 26.2012 38.8131C26.2231 38.835 26.5629 38.5702 26.9565 38.2247C28.626 36.7592 30.7435 35.6183 32.4807 35.2484C34.2874 34.8636 36.0908 35.0016 38.7126 35.7251C40.1479 36.1211 41.2588 36.3305 41.5447 36.2587C41.7239 36.2137 41.666 36.1736 41.0574 35.9211C40.6776 35.7634 40.0342 35.4591 39.6276 35.2448C37.9943 34.3836 36.5483 33.8961 35.0966 33.7174C34.0619 33.5899 34.0687 33.5899 33.0193 33.7218Z" fill="white"/>
</g>
<defs>
<filter id="filter0_d_2167_2720" x="0" y="0" width="84" height="84" filterUnits="userSpaceOnUse" color-interpolation-filters="sRGB">
<feFlood flood-opacity="0" result="BackgroundImageFix"/>
<feColorMatrix in="SourceAlpha" type="matrix" values="0 0 0 0 0 0 0 0 0 0 0 0 0 0 0 0 0 0 127 0" result="hardAlpha"/>
<feOffset/>
<feGaussianBlur stdDeviation="3"/>
<feComposite in2="hardAlpha" operator="out"/>
<feColorMatrix type="matrix" values="0 0 0 0 0.333333 0 0 0 0 0.709804 0 0 0 0 0.670588 0 0 0 0.25 0"/>
<feBlend mode="normal" in2="BackgroundImageFix" result="effect1_dropShadow_2167_2720"/>
<feBlend mode="normal" in="SourceGraphic" in2="effect1_dropShadow_2167_2720" result="shape"/>
</filter>
</defs>
</svg>
